# xmcd
#
# Track frame offsets:
#	150
#	15877
#	34617
#	52582
#	71090
#	97032
# Disc length: 4440 seconds
# Revision: 1
# Processed by: cddbd v1.5.1PL0 Copyright (c) Steve Scherf et al.
#
# Submitted via: libkcddb 0.10
#
DISCID=3c115606
DTITLE=Bro'Sis - Oh No
DYEAR=2003
DGENRE=Oh No - Never St
TTITLE0=Oh No (Radio Edit)
TTITLE1=Oh No (Extended Version)
TTITLE2=Oh No (D'Klay's Urban Rmx 2003)
TTITLE3=Oh No (The Futurehit Hell's Kitchen Remix)
TTITLE4=Never Stop
TTITLE5=DATA
EXTD=
EXTT0=
EXTT1=
EXTT2=
EXTT3=
EXTT4=
EXTT5=
PLAYORDER=
